<?xml version="1.0" encoding="UTF-8" standalone="no"?>
<!-- Created with Inkscape (http://www.inkscape.org/) -->

<svg
   xmlns:dc="http://purl.org/dc/elements/1.1/"
   xmlns:cc="http://creativecommons.org/ns#"
   xmlns:rdf="http://www.w3.org/1999/02/22-rdf-syntax-ns#"
   xmlns:svg="http://www.w3.org/2000/svg"
   xmlns="http://www.w3.org/2000/svg"
   xmlns:sodipodi="http://sodipodi.sourceforge.net/DTD/sodipodi-0.dtd"
   xmlns:inkscape="http://www.inkscape.org/namespaces/inkscape"
   width="1736.9062"
   height="1736.7188"
   id="svg2"
   version="1.1"
   inkscape:version="0.48.4 r9939"
   sodipodi:docname="gear.svg">
  <sodipodi:namedview
     id="base"
     pagecolor="#ffffff"
     bordercolor="#666666"
     borderopacity="1.0"
     inkscape:pageopacity="0"
     inkscape:pageshadow="2"
     inkscape:zoom="0.21313476"
     inkscape:cx="369.43135"
     inkscape:cy="484.48477"
     inkscape:document-units="px"
     inkscape:current-layer="svg2"
     showgrid="false"
     inkscape:window-width="1920"
     inkscape:window-height="1025"
     inkscape:window-x="0"
     inkscape:window-y="30"
     inkscape:window-maximized="1"
     fit-margin-top="0"
     fit-margin-left="0"
     fit-margin-right="0"
     fit-margin-bottom="0"
     showborder="true" />
  <defs
     id="defs4" />
  <metadata
     id="metadata7">
    <rdf:RDF>
      <cc:Work
         rdf:about="">
        <dc:format>image/svg+xml</dc:format>
        <dc:type
           rdf:resource="http://purl.org/dc/dcmitype/StillImage" />
        <dc:title />
      </cc:Work>
    </rdf:RDF>
  </metadata>
  <g
     inkscape:label="Layer 1"
     inkscape:groupmode="layer"
     id="layer1"
     transform="translate(-189.2447,833.66907)" />
  <path
     style="fill:#336cbf;fill-opacity:1;fill-rule:nonzero;stroke:none"
     d="M 810.03125,0 C 758.05409,3.4436661 707.33507,11.420983 658.25,23.59375 L 668.59375,110.75 c -27.68194,6.97103 -54.77284,15.40453 -81.1875,25.25 l -42.4375,-75.84375 c -47.87523,19.177961 -93.67257,42.43946 -136.90625,69.4375 l 35.8125,77.59375 c -24.31836,15.36905 -47.7253,32.04911 -70.125,49.9375 L 311.5,199.5625 c -39.36663,32.81746 -75.81561,69.03471 -108.84375,108.21875 l 56.875,61.5 c -18.4821,22.2934 -35.74555,45.62084 -51.6875,69.90625 l -75.75,-34.96875 c -27.21128,43.07611 -50.767645,88.69524 -70.1875,136.4375 l 72.375,40.5 c -10.6257,27.02563 -19.75063,54.81579 -27.34375,83.21875 l -82.375,-9.78125 C 12.199698,703.5442 3.9852107,754.144 0.3125,806 l 81.46875,16.1875 c -0.806094,14.51938 -1.21875,29.12288 -1.21875,43.84375 0,14.71034 0.413802,29.3346 1.21875,43.84375 L 0,926.125 c 3.3968836,51.86154 11.31828,102.481 23.40625,151.4688 l 83.5,-9.9063 c 7.59468,28.4135 16.74559,56.1837 27.375,83.2188 L 60.375,1192.2501 c 19.171764,47.7891 42.44037,93.4959 69.40625,136.6562 l 78.0625,-36.0312 c 15.94277,24.2865 33.20432,47.643 51.6875,69.9374 l -58.9375,63.7188 c 32.83143,39.2422 69.08145,75.5211 108.25,108.4375 l 64.875,-60.0313 c 22.40908,17.8975 45.82675,34.5931 70.15625,49.9688 l -37.46875,81.1875 c 43.07769,27.0363 88.6942,50.3951 136.40625,69.6563 l 44.59375,-79.6876 c 26.41466,9.8456 53.50556,18.3103 81.1875,25.2813 l -10.875,91.6875 c 48.95459,12.1733 99.53848,20.1974 151.375,23.6875 l 18.375,-92.5 c 10.58802,0.4269 21.24472,0.6563 31.9375,0.6563 17.40691,0 34.6588,-0.5632 51.78125,-1.6876 l 18.5625,93.4063 c 51.82421,-3.6064 102.3826,-11.7766 151.3126,-24.0625 l -11.4376,-96.375 c 26.7023,-7.4679 52.8204,-16.3086 78.2813,-26.4688 l 47.7813,85.4063 c 47.6825,-19.3632 93.278,-42.8345 136.3124,-69.9687 l -41.625,-90.25 c 22.6475,-15.0729 44.4487,-31.2969 65.3438,-48.5938 l 73.3438,67.8125 c 39.1441,-32.9996 75.3663,-69.3615 108.1562,-108.6875 l -68.5625,-74.125 c 16.7318,-20.9802 32.3777,-42.8653 46.9063,-65.5312 l 91.9687,42.4374 c 26.9465,-43.2219 50.1776,-88.9905 69.3125,-136.8437 l -88.7812,-49.6875 c 9.4035,-24.8476 17.5776,-50.2952 24.4374,-76.2812 l 101,12 c 12.0879,-49.0399 20.0281,-99.70743 23.4063,-151.6251 l -99.6875,-19.8125 c 0.6666,-13.2134 1.0312,-26.52723 1.0312,-39.90625 0,-13.38954 -0.3635,-26.6826 -1.0312,-39.90625 l 99.375,-19.75 c -3.6541,-51.90894 -11.8572,-102.56282 -24.2188,-151.5625 l -99.9062,11.84375 c -6.8574,-25.96932 -15.0084,-51.41784 -24.4062,-76.25 l 87.25,-48.84375 c -19.3821,-47.80377 -42.8727,-93.48892 -70.0626,-136.625 l -89.6874,41.375 c -14.5269,-22.66322 -30.1768,-44.52219 -46.9063,-65.5 l 66.5,-71.90625 c -32.9916,-39.2742 -69.4007,-75.59505 -108.75,-108.5 l -70.6875,65.375 c -20.8951,-17.29693 -42.6963,-33.52105 -65.3438,-48.59375 l 39.9688,-86.625 c -43.1928,-27.09771 -88.9637,-50.469143 -136.8125,-69.75 l -45.6563,81.5625 c -25.45,-10.15441 -51.5597,-19.00415 -78.25,-26.46875 L 1080.5313,24.0625 C 1031.4732,11.777871 980.77473,3.6850921 928.8125,0.125 l -17.625,88.78125 c -17.12245,-1.124365 -34.37434,-1.71875 -51.78125,-1.71875 -10.69278,0 -21.34948,0.229399 -31.9375,0.65625 L 810.03125,0 z m 51.375,171.625 c 383.50455,0 694.37505,310.90171 694.37505,694.40625 0,383.50455 -310.8705,694.40625 -694.37505,694.40625 C 477.90171,1560.4375 167,1249.5358 167,866.03125 167,482.52671 477.90171,171.625 861.40625,171.625 z"
     id="path3782"
     inkscape:connector-curvature="0" />
</svg>
