<?xml version="1.0" encoding="UTF-8" standalone="no"?>
<!-- Created with Inkscape (http://www.inkscape.org/) -->

<svg
   xmlns:dc="http://purl.org/dc/elements/1.1/"
   xmlns:cc="http://creativecommons.org/ns#"
   xmlns:rdf="http://www.w3.org/1999/02/22-rdf-syntax-ns#"
   xmlns:svg="http://www.w3.org/2000/svg"
   xmlns="http://www.w3.org/2000/svg"
   xmlns:xlink="http://www.w3.org/1999/xlink"
   xmlns:sodipodi="http://sodipodi.sourceforge.net/DTD/sodipodi-0.dtd"
   xmlns:inkscape="http://www.inkscape.org/namespaces/inkscape"
   width="6341.4902"
   height="2735"
   id="svg2"
   version="1.1"
   inkscape:version="0.48.4 r9939"
   sodipodi:docname="logo.svg">
  <script
     xlink:href=""
     id="script3024" />
  <sodipodi:namedview
     id="base"
     pagecolor="#686868"
     bordercolor="#666666"
     borderopacity="1.0"
     inkscape:pageopacity="0.45098039"
     inkscape:pageshadow="2"
     inkscape:zoom="0.06424267"
     inkscape:cx="7474.8188"
     inkscape:cy="97.204067"
     inkscape:document-units="px"
     inkscape:current-layer="text5256"
     showgrid="false"
     inkscape:window-width="1920"
     inkscape:window-height="1025"
     inkscape:window-x="0"
     inkscape:window-y="30"
     inkscape:window-maximized="1"
     fit-margin-top="0"
     fit-margin-left="0"
     fit-margin-right="0"
     fit-margin-bottom="0"
     showborder="true" />
  <defs
     id="defs4" />
  <metadata
     id="metadata7">
    <rdf:RDF>
      <cc:Work
         rdf:about="">
        <dc:format>image/svg+xml</dc:format>
        <dc:type
           rdf:resource="http://purl.org/dc/dcmitype/StillImage" />
        <dc:title></dc:title>
      </cc:Work>
    </rdf:RDF>
  </metadata>
  <g
     inkscape:label="Layer 1"
     inkscape:groupmode="layer"
     id="layer1"
     transform="translate(-187.33845,1834.6378)" />
  <path
     style="fill:#ffffff;fill-opacity:1;fill-rule:nonzero;stroke:none"
     d="m 838.44985,401.49283 c -68.8074,0 -135.75745,8.0068 -199.94417,23.1385 l -15.12424,206.602 c -82.87529,27.914 -158.53632,71.4816 -223.45247,127.2409 L 212.72538,667.93433 C 117.89213,766.55613 46.15543,887.54403 6.20549,1022.2032 l 171.58617,116.5553 c -8.32021,42.2893 -12.69943,86.0058 -12.69943,130.7343 0,44.4966 4.3399,87.9921 12.57614,130.0766 L 6,1516.1659 c 39.84276,134.6698 111.50292,255.6731 206.23219,354.3511 l 187.12141,-90.4988 c 65.05707,56.0072 140.92949,99.7792 224.06893,127.7752 l 15.12425,206.5609 c 64.17484,15.1257 131.10958,23.1385 199.90307,23.1385 72.6829,0 143.2812,-8.9399 210.75305,-25.7688 l 15.2064,-207.7116 c 80.4848,-28.6639 153.9027,-72.212 216.9589,-127.3233 l 186.7104,90.2935 c 94.454,-99.5049 165.5812,-221.3833 204.5883,-356.8581 l -172.2026,-116.9664 c 7.4411,-40.0868 11.3431,-81.4225 11.3431,-123.6653 0,-42.4731 -3.9458,-84.031 -11.4665,-124.3229 l 172.1204,-116.9252 C 1633.3469,892.78083 1562.143,770.91743 1467.5855,671.46883 l -186.7926,90.3344 c -62.9063,-54.8562 -136.0927,-98.2113 -216.3014,-126.7888 l -15.2064,-207.7117 c -67.49825,-16.843 -138.12095,-25.8099 -210.83525,-25.8099 z m 5.2606,573.4061 c 165.60505,0 299.85455,134.24937 299.85455,299.85447 0,165.6051 -134.2496,299.8546 -299.85455,299.8546 -165.60513,0 -299.85458,-134.2495 -299.85458,-299.8546 0,-165.6051 134.24945,-299.85447 299.85458,-299.85447 z"
     id="path3293"
     inkscape:connector-curvature="0" />
  <g
     style="font-size:1800px;font-style:normal;font-variant:normal;font-weight:bold;font-stretch:normal;line-height:125%;letter-spacing:-50px;word-spacing:0px;fill:#ffffff;fill-opacity:1;stroke:none;font-family:Open Sans;-inkscape-font-specification:Open Sans Bold"
     id="text5256">
    <path
       d="m 2668.9916,863.83264 c -102.5397,0.001 -181.9341,38.67291 -238.1836,116.01563 -56.2504,76.75873 -84.3754,183.98513 -84.375,321.67973 -4e-4,286.5237 107.519,429.7853 322.5586,429.7851 90.2336,2e-4 199.5108,-22.5584 327.832,-67.6758 l 0,228.5157 c -105.4697,43.9453 -223.243,65.9179 -353.3203,65.9179 -186.9146,0 -329.8832,-56.5429 -428.9063,-169.6289 -99.0235,-113.6716 -148.5352,-276.5621 -148.5351,-488.6719 -1e-4,-133.5929 24.3163,-250.4873 72.9492,-350.68355 48.6326,-100.78016 118.3591,-177.83086 209.1797,-231.15235 91.4058,-53.90497 198.3393,-80.85807 320.8008,-80.85937 124.8038,0.001 250.1943,30.17705 376.1719,90.52734 l -87.8907,221.48438 c -48.0478,-22.85055 -96.3876,-42.77241 -145.0195,-59.76563 -48.6336,-16.99112 -96.3875,-25.4872 -143.2617,-25.48828"
       style="fill:#ffffff;font-family:Open Sans;-inkscape-font-specification:Open Sans Bold"
       id="path4168" />
    <path
       d="m 3411.765,1447.4264 c -3e-4,97.266 15.82,170.8011 47.461,220.6055 32.2261,49.8049 84.3745,74.7072 156.4453,74.707 71.4837,2e-4 122.7532,-24.6092 153.8086,-73.8281 31.6398,-49.8044 47.4601,-123.6325 47.4609,-221.4844 -8e-4,-97.265 -15.8211,-170.2142 -47.4609,-218.8477 -31.6413,-48.632 -83.4968,-72.9484 -155.5664,-72.9492 -71.4849,8e-4 -123.0474,24.3172 -154.6875,72.9492 -31.641,48.0476 -47.4613,120.9967 -47.461,218.8477 m 679.3945,0 c -0,159.9613 -42.1884,285.0588 -126.5625,375.293 -84.3758,90.2344 -201.8561,135.3515 -352.4414,135.3515 -94.3364,0 -177.5394,-20.5078 -249.6093,-61.5234 -72.0706,-41.6015 -127.4416,-101.0741 -166.1133,-178.418 -38.672,-77.3434 -58.0079,-167.5777 -58.0078,-270.7031 -1e-4,-160.5462 41.8944,-285.3508 125.6836,-374.4141 83.7887,-89.06151 201.5621,-133.59272 353.3203,-133.59372 94.3353,10e-4 177.5383,20.50879 249.6094,61.52342 72.0694,41.0165 127.4404,99.9032 166.1132,176.6602 38.6709,76.7585 58.0068,166.6998 58.0078,269.8242"
       style="fill:#ffffff;font-family:Open Sans;-inkscape-font-specification:Open Sans Bold"
       id="path4170" />
    <path
       d="m 4476.2181,1447.4264 c -3e-4,97.266 15.82,170.8011 47.461,220.6055 32.2261,49.8049 84.3745,74.7072 156.4453,74.707 71.4837,2e-4 122.7532,-24.6092 153.8086,-73.8281 31.6399,-49.8044 47.4602,-123.6325 47.4609,-221.4844 -7e-4,-97.265 -15.821,-170.2142 -47.4609,-218.8477 -31.6413,-48.632 -83.4967,-72.9484 -155.5664,-72.9492 -71.4849,8e-4 -123.0473,24.3172 -154.6875,72.9492 -31.641,48.0476 -47.4613,120.9967 -47.461,218.8477 m 679.3946,0 c -0,159.9613 -42.1885,285.0588 -126.5625,375.293 -84.3759,90.2344 -201.8562,135.3515 -352.4414,135.3515 -94.3364,0 -177.5395,-20.5078 -249.6094,-61.5234 -72.0706,-41.6015 -127.4416,-101.0741 -166.1133,-178.418 -38.672,-77.3434 -58.0079,-167.5777 -58.0078,-270.7031 -1e-4,-160.5462 41.8944,-285.3508 125.6836,-374.4141 83.7888,-89.06151 201.5621,-133.59272 353.3203,-133.59372 94.3353,10e-4 177.5383,20.50879 249.6094,61.52342 72.0694,41.0165 127.4404,99.9032 166.1133,176.6602 38.6708,76.7585 58.0067,166.6998 58.0078,269.8242"
       style="fill:#ffffff;font-family:Open Sans;-inkscape-font-specification:Open Sans Bold"
       id="path4172" />
    <path
       d="m 5584.6166,1406.1178 116.8945,-149.4141 275.0977,-298.82809 302.3437,0 -390.2344,426.26949 413.9649,556.3477 -309.375,0 -283.0078,-398.1445 -115.1367,92.2851 0,305.8594 -268.0665,0 0,-1367.57813 268.0665,0 0,609.96093 -14.0625,223.2422 3.5156,0"
       style="fill:#ffffff;font-family:Open Sans;-inkscape-font-specification:Open Sans Bold"
       id="path4174" />
  </g>
  <g
     style="font-size:2082.54345703px;font-style:normal;font-variant:normal;font-weight:normal;font-stretch:normal;line-height:125%;letter-spacing:0px;word-spacing:0px;fill:#ffa60f;fill-opacity:1;stroke:#ffa60f;stroke-width:50;stroke-linecap:butt;stroke-linejoin:miter;stroke-miterlimit:4;stroke-opacity:1;stroke-dasharray:none;font-family:TG Pagella Math;-inkscape-font-specification:TG Pagella Math"
     id="text3047"
     transform="translate(0,999)" />
  <text
     sodipodi:linespacing="125%"
     id="text4163"
     y="4368.7852"
     x="1992.604"
     style="font-size:1800px;font-style:normal;font-variant:normal;font-weight:bold;font-stretch:normal;line-height:125%;letter-spacing:-50px;word-spacing:0px;fill:#ffffff;fill-opacity:1;stroke:none;font-family:Open Sans;-inkscape-font-specification:Open Sans Bold"
     xml:space="preserve"><tspan
       style="font-size:1800px;font-style:normal;font-variant:normal;font-weight:bold;font-stretch:normal;letter-spacing:-50px;fill:#ffffff;fill-opacity:1;font-family:Open Sans;-inkscape-font-specification:Open Sans Bold"
       y="4368.7852"
       x="1992.604"
       id="tspan4165"
       sodipodi:role="line">Cook</tspan></text>
</svg>
