<?xml version="1.0" encoding="UTF-8" standalone="no"?>
<!-- Created with Inkscape (http://www.inkscape.org/) -->

<svg
   xmlns:dc="http://purl.org/dc/elements/1.1/"
   xmlns:cc="http://creativecommons.org/ns#"
   xmlns:rdf="http://www.w3.org/1999/02/22-rdf-syntax-ns#"
   xmlns:svg="http://www.w3.org/2000/svg"
   xmlns="http://www.w3.org/2000/svg"
   xmlns:sodipodi="http://sodipodi.sourceforge.net/DTD/sodipodi-0.dtd"
   xmlns:inkscape="http://www.inkscape.org/namespaces/inkscape"
   width="8810.4912"
   height="1736"
   id="svg2"
   version="1.1"
   inkscape:version="0.48.4 r9939"
   sodipodi:docname="logo.svg">
  <sodipodi:namedview
     id="base"
     pagecolor="#ffffff"
     bordercolor="#666666"
     borderopacity="1.0"
     inkscape:pageopacity="0"
     inkscape:pageshadow="2"
     inkscape:zoom="0.10656738"
     inkscape:cx="7382.9468"
     inkscape:cy="683.77082"
     inkscape:document-units="px"
     inkscape:current-layer="svg2"
     showgrid="false"
     inkscape:window-width="1920"
     inkscape:window-height="1025"
     inkscape:window-x="0"
     inkscape:window-y="30"
     inkscape:window-maximized="1"
     fit-margin-top="0"
     fit-margin-left="0"
     fit-margin-right="0"
     fit-margin-bottom="0"
     showborder="true" />
  <defs
     id="defs4" />
  <metadata
     id="metadata7">
    <rdf:RDF>
      <cc:Work
         rdf:about="">
        <dc:format>image/svg+xml</dc:format>
        <dc:type
           rdf:resource="http://purl.org/dc/dcmitype/StillImage" />
        <dc:title />
      </cc:Work>
    </rdf:RDF>
  </metadata>
  <g
     inkscape:label="Layer 1"
     inkscape:groupmode="layer"
     id="layer1"
     transform="translate(-187.33845,835.63782)" />
  <path
     style="fill:#ffffff;fill-opacity:1;fill-rule:nonzero;stroke:none"
     d="M 832.44985,0 C 763.64245,0 696.6924,8.00683 632.50568,23.13845 L 617.38144,229.74053 C 534.50615,257.6545 458.84512,301.22208 393.92897,356.98144 L 206.72538,266.44148 C 111.89213,365.06328 40.15543,486.05122 0.20549,620.71042 l 171.58617,116.5553 C 163.47145,779.55497 159.09223,823.27154 159.09223,868 c 0,44.4966 4.3399,87.9921 12.57614,130.0766 L 0,1114.6731 c 39.84276,134.6698 111.50292,255.6731 206.23219,354.3511 l 187.12141,-90.4988 c 65.05707,56.0072 140.92949,99.7792 224.06893,127.7752 l 15.12425,206.5609 C 696.72162,1727.9872 763.65636,1736 832.44985,1736 c 72.6829,0 143.2812,-8.9399 210.75305,-25.7688 l 15.2064,-207.7116 c 80.4848,-28.6639 153.9027,-72.212 216.9589,-127.3233 l 186.7104,90.2935 c 94.454,-99.5049 165.5812,-221.3833 204.5883,-356.8581 L 1494.4643,991.6653 c 7.4411,-40.0868 11.3431,-81.4225 11.3431,-123.6653 0,-42.47307 -3.9458,-84.03099 -11.4665,-124.32292 L 1666.4613,626.75189 C 1627.3469,491.28803 1556.143,369.42459 1461.5855,269.97595 l -186.7926,90.33447 c -62.9063,-54.85621 -136.0927,-98.2113 -216.3014,-126.78883 L 1043.2851,25.80985 C 975.78685,8.96691 905.16415,0 832.44985,0 z m 5.2606,573.40606 c 165.60505,0 299.85455,134.24946 299.85455,299.85454 0,165.6051 -134.2496,299.8546 -299.85455,299.8546 -165.60513,0 -299.85458,-134.2495 -299.85458,-299.8546 0,-165.60508 134.24945,-299.85454 299.85458,-299.85454 z"
     id="path3293"
     inkscape:connector-curvature="0" />
  <text
     xml:space="preserve"
     style="font-size:1800px;font-style:normal;font-variant:normal;font-weight:bold;font-stretch:normal;line-height:125%;letter-spacing:-50px;word-spacing:0px;fill:#ffffff;fill-opacity:1;stroke:none;font-family:Open Sans;-inkscape-font-specification:Open Sans Bold"
     x="1955.472"
     y="1539"
     id="text5256"
     sodipodi:linespacing="125%"><tspan
       sodipodi:role="line"
       id="tspan5258"
       x="1955.472"
       y="1539"
       style="font-size:1800px;font-style:normal;font-variant:normal;font-weight:bold;font-stretch:normal;letter-spacing:-50px;fill:#ffffff;fill-opacity:1;font-family:Open Sans;-inkscape-font-specification:Open Sans Bold">Cook</tspan></text>
  <g
     style="font-size:2082.54345703000035428px;font-style:normal;font-variant:normal;font-weight:normal;font-stretch:normal;line-height:125%;letter-spacing:0px;word-spacing:0px;fill:#ffa60f;fill-opacity:1;stroke:#ffa60f;font-family:TG Pagella Math;-inkscape-font-specification:TG Pagella Math;stroke-width:50;stroke-miterlimit:4;stroke-dasharray:none;stroke-opacity:1;stroke-linejoin:miter;stroke-linecap:butt"
     id="text3047">
    <path
       d="m 8192.0702,1381.0309 -27.0731,-39.5683 c -68.7239,64.5588 -118.705,81.2192 -154.1082,81.2192 -33.3207,0 -60.3938,-6.2477 -89.5494,-45.8159 -27.073,-39.5683 -68.7239,-127.0353 -89.5493,-189.5115 l -33.3207,-97.8795 c 52.0635,-83.3017 99.9621,-174.93373 122.87,-220.74964 22.908,-43.73337 83.3018,-168.68607 87.4668,-210.33689 -16.6603,-22.90796 -29.1556,-41.6509 -45.8159,-72.88902 -8.3302,-4.16509 -27.0731,-10.41273 -35.4033,-14.57781 -20.8254,172.85094 -39.5683,231.16245 -97.8795,354.03239 -6.2476,12.49525 -33.3207,64.55888 -52.0636,99.96207 L 7648.5263,643.81056 c -35.4032,-93.71436 -97.8796,-102.04463 -143.6955,-102.04463 -47.8984,2.08254 -114.5399,37.48585 -174.9336,102.04463 -45.8159,45.81591 -77.0542,99.96215 -104.1272,164.52094 -64.5588,185.34618 -91.6319,433.1692 -62.4763,599.7725 12.4952,68.7239 62.4764,160.3559 112.4573,160.3559 85.3842,0 147.8607,-41.651 206.1718,-89.5494 79.1366,-74.9715 160.356,-168.6861 216.5846,-241.5751 62.4762,216.5844 147.8606,331.1245 231.1623,331.1245 47.8984,0 108.2923,-35.4033 170.7686,-95.797 l 91.6319,-91.632 m -514.3883,-208.2543 c -49.981,70.8064 -102.0446,133.2828 -149.9431,177.0162 -58.3112,54.1461 -116.6225,72.889 -156.1908,72.889 -27.073,0 -43.7334,-29.1556 -54.1461,-83.3017 -22.9079,-133.2827 -27.073,-358.19767 14.5778,-531.0486 16.6604,-68.72387 60.3938,-129.1177 108.2923,-129.1177 64.5588,0 93.7145,37.48588 122.87,129.1177 l 114.5399,364.4451"
       style="font-family:TG Pagella Math;-inkscape-font-specification:TG Pagella Math;fill:#ffa60f;fill-opacity:1;stroke-width:50;stroke-miterlimit:4;stroke-dasharray:none;stroke:#ffa60f;stroke-opacity:1;stroke-linejoin:miter;stroke-linecap:butt"
       id="path3828" />
  </g>
</svg>
