<?xml version="1.0" encoding="UTF-8" standalone="no"?>
<!-- Created with Inkscape (http://www.inkscape.org/) -->

<svg
   xmlns:dc="http://purl.org/dc/elements/1.1/"
   xmlns:cc="http://creativecommons.org/ns#"
   xmlns:rdf="http://www.w3.org/1999/02/22-rdf-syntax-ns#"
   xmlns:svg="http://www.w3.org/2000/svg"
   xmlns="http://www.w3.org/2000/svg"
   xmlns:xlink="http://www.w3.org/1999/xlink"
   xmlns:sodipodi="http://sodipodi.sourceforge.net/DTD/sodipodi-0.dtd"
   xmlns:inkscape="http://www.inkscape.org/namespaces/inkscape"
   width="6341.4902"
   height="2735"
   id="svg2"
   version="1.1"
   inkscape:version="0.48.4 r9939"
   sodipodi:docname="logo.svg">
  <script
     xlink:href=""
     id="script3024" />
  <sodipodi:namedview
     id="base"
     pagecolor="#686868"
     bordercolor="#666666"
     borderopacity="1.0"
     inkscape:pageopacity="0.45098039"
     inkscape:pageshadow="2"
     inkscape:zoom="0.06424267"
     inkscape:cx="7474.8188"
     inkscape:cy="97.204067"
     inkscape:document-units="px"
     inkscape:current-layer="text3047"
     showgrid="false"
     inkscape:window-width="1920"
     inkscape:window-height="1025"
     inkscape:window-x="0"
     inkscape:window-y="30"
     inkscape:window-maximized="1"
     fit-margin-top="0"
     fit-margin-left="0"
     fit-margin-right="0"
     fit-margin-bottom="0"
     showborder="true" />
  <defs
     id="defs4" />
  <metadata
     id="metadata7">
    <rdf:RDF>
      <cc:Work
         rdf:about="">
        <dc:format>image/svg+xml</dc:format>
        <dc:type
           rdf:resource="http://purl.org/dc/dcmitype/StillImage" />
        <dc:title></dc:title>
      </cc:Work>
    </rdf:RDF>
  </metadata>
  <g
     inkscape:label="Layer 1"
     inkscape:groupmode="layer"
     id="layer1"
     transform="translate(-187.33845,1834.6378)" />
  <path
     style="fill:#ffffff;fill-opacity:1;fill-rule:nonzero;stroke:none"
     d="m 838.44985,401.49283 c -68.8074,0 -135.75745,8.0068 -199.94417,23.1385 l -15.12424,206.602 c -82.87529,27.914 -158.53632,71.4816 -223.45247,127.2409 L 212.72538,667.93433 C 117.89213,766.55613 46.15543,887.54403 6.20549,1022.2032 l 171.58617,116.5553 c -8.32021,42.2893 -12.69943,86.0058 -12.69943,130.7343 0,44.4966 4.3399,87.9921 12.57614,130.0766 L 6,1516.1659 c 39.84276,134.6698 111.50292,255.6731 206.23219,354.3511 l 187.12141,-90.4988 c 65.05707,56.0072 140.92949,99.7792 224.06893,127.7752 l 15.12425,206.5609 c 64.17484,15.1257 131.10958,23.1385 199.90307,23.1385 72.6829,0 143.2812,-8.9399 210.75305,-25.7688 l 15.2064,-207.7116 c 80.4848,-28.6639 153.9027,-72.212 216.9589,-127.3233 l 186.7104,90.2935 c 94.454,-99.5049 165.5812,-221.3833 204.5883,-356.8581 l -172.2026,-116.9664 c 7.4411,-40.0868 11.3431,-81.4225 11.3431,-123.6653 0,-42.4731 -3.9458,-84.031 -11.4665,-124.3229 l 172.1204,-116.9252 C 1633.3469,892.78083 1562.143,770.91743 1467.5855,671.46883 l -186.7926,90.3344 c -62.9063,-54.8562 -136.0927,-98.2113 -216.3014,-126.7888 l -15.2064,-207.7117 c -67.49825,-16.843 -138.12095,-25.8099 -210.83525,-25.8099 z m 5.2606,573.4061 c 165.60505,0 299.85455,134.24937 299.85455,299.85447 0,165.6051 -134.2496,299.8546 -299.85455,299.8546 -165.60513,0 -299.85458,-134.2495 -299.85458,-299.8546 0,-165.6051 134.24945,-299.85447 299.85458,-299.85447 z"
     id="path3293"
     inkscape:connector-curvature="0" />
  <text
     xml:space="preserve"
     style="font-size:1800px;font-style:normal;font-variant:normal;font-weight:bold;font-stretch:normal;line-height:125%;letter-spacing:-50px;word-spacing:0px;fill:#ffffff;fill-opacity:1;stroke:none;font-family:Open Sans;-inkscape-font-specification:Open Sans Bold"
     x="1961.472"
     y="1940.4928"
     id="text5256"
     sodipodi:linespacing="125%"><tspan
       sodipodi:role="line"
       id="tspan5258"
       x="1961.472"
       y="1940.4928"
       style="font-size:1800px;font-style:normal;font-variant:normal;font-weight:bold;font-stretch:normal;letter-spacing:-50px;fill:#ffffff;fill-opacity:1;font-family:Open Sans;-inkscape-font-specification:Open Sans Bold">Cook</tspan></text>
  <g
     style="font-size:2082.54345703px;font-style:normal;font-variant:normal;font-weight:normal;font-stretch:normal;line-height:125%;letter-spacing:0px;word-spacing:0px;fill:#ffa60f;fill-opacity:1;stroke:#ffa60f;stroke-width:50;stroke-linecap:butt;stroke-linejoin:miter;stroke-miterlimit:4;stroke-opacity:1;stroke-dasharray:none;font-family:TG Pagella Math;-inkscape-font-specification:TG Pagella Math"
     id="text3047"
     transform="translate(0,999)" />
</svg>
