<?xml version="1.0" standalone="no"?>
<!DOCTYPE svg PUBLIC "-//W3C//DTD SVG 20010904//EN"
 "http://www.w3.org/TR/2001/REC-SVG-20010904/DTD/svg10.dtd">
<svg version="1.0" xmlns="http://www.w3.org/2000/svg"
 width="700.000000pt" height="700.000000pt" viewBox="0 0 700.000000 700.000000"
 preserveAspectRatio="xMidYMid meet">
<metadata>
Created by potrace 1.11, written by Peter Selinger 2001-2013
</metadata>
<g transform="translate(0.000000,700.000000) scale(0.100000,-0.100000)"
fill="#000000" stroke="none">
<path d="M671 6985 c-253 -46 -467 -208 -581 -440 -94 -190 -85 131 -85 -3045
0 -3176 -9 -2855 85 -3045 81 -166 199 -284 365 -365 190 -94 -131 -85 3045
-85 3176 0 2855 -9 3045 85 166 81 284 199 365 365 94 190 85 -131 85 3045 0
3176 9 2855 -85 3045 -81 166 -199 284 -365 365 -190 94 135 84 -3015 86
-2303 2 -2798 0 -2859 -11z m3264 -870 c83 -15 162 -29 176 -32 31 -6 29 9 54
-368 9 -132 18 -249 20 -260 3 -13 18 -26 42 -34 155 -54 404 -197 554 -318
l67 -53 279 135 c154 74 285 135 291 135 14 0 129 -133 212 -245 166 -223 289
-458 381 -723 21 -63 39 -116 39 -118 0 -1 -117 -82 -260 -179 -143 -97 -262
-180 -264 -183 -2 -4 3 -47 11 -97 19 -121 19 -450 0 -570 -8 -49 -12 -93 -8
-96 3 -3 119 -82 256 -174 138 -92 253 -171 258 -175 18 -15 -80 -275 -173
-460 -110 -219 -232 -400 -396 -583 l-51 -58 -281 136 c-155 74 -286 135 -291
135 -4 0 -37 -23 -72 -51 -142 -115 -307 -212 -499 -294 l-95 -41 -23 -314
c-15 -206 -27 -317 -34 -321 -14 -9 -196 -43 -323 -61 -53 -8 -184 -13 -320
-12 -231 0 -375 14 -537 50 l-67 15 -5 42 c-3 23 -12 143 -21 267 -8 124 -17
248 -20 275 l-6 50 -87 34 c-183 71 -371 179 -526 301 -35 27 -68 50 -74 50
-5 0 -135 -61 -287 -135 l-278 -136 -35 33 c-95 91 -278 341 -376 516 -103
182 -240 524 -218 543 4 4 115 80 247 169 132 89 246 168 254 176 12 11 12 30
-3 136 -20 154 -21 400 -1 532 8 55 15 109 15 121 0 17 -54 58 -255 194 -140
95 -257 176 -260 181 -3 4 11 54 30 110 117 335 297 640 538 911 l59 67 217
-105 c119 -58 248 -120 288 -139 l72 -33 68 53 c161 126 336 227 513 296 47
18 89 36 93 40 5 4 19 146 31 314 13 169 27 311 32 315 15 14 191 45 364 65
19 2 148 3 285 1 221 -2 268 -6 400 -30z"/>
<path d="M3375 4384 c-11 -2 -45 -9 -75 -15 -30 -6 -93 -27 -140 -46 -269
-113 -464 -336 -542 -621 -17 -61 -21 -107 -22 -222 0 -176 19 -264 94 -415
112 -227 313 -394 565 -471 81 -25 105 -28 250 -28 137 -1 171 2 238 22 329
95 572 341 656 668 33 124 31 319 -4 457 -24 93 -106 254 -172 337 -111 139
-281 253 -458 306 -75 22 -113 27 -230 30 -77 1 -149 1 -160 -2z"/>
</g>
</svg>
